<svg width="24" height="24" viewBox="0 0 24 24" fill="none" xmlns="http://www.w3.org/2000/svg">
<path d="M12 18H4V16H12V18ZM20 13H4V11H20V13ZM20 8H12V6H20V8Z" fill="#202224"/>
<path d="M12 18V18.25H12.25V18H12ZM4 18H3.75V18.25H4V18ZM4 16V15.75H3.75V16H4ZM12 16H12.25V15.75H12V16ZM20 13V13.25H20.25V13H20ZM4 13H3.75V13.25H4V13ZM4 11V10.75H3.75V11H4ZM20 11H20.25V10.75H20V11ZM20 8V8.25H20.25V8H20ZM12 8H11.75V8.25H12V8ZM12 6V5.75H11.75V6H12ZM20 6H20.25V5.75H20V6ZM12 18V17.75H4V18V18.25H12V18ZM4 18H4.25V16H4H3.75V18H4ZM4 16V16.25H12V16V15.75H4V16ZM12 16H11.75V18H12H12.25V16H12ZM20 13V12.75H4V13V13.25H20V13ZM4 13H4.25V11H4H3.75V13H4ZM4 11V11.25H20V11V10.75H4V11ZM20 11H19.75V13H20H20.25V11H20ZM20 8V7.75H12V8V8.25H20V8ZM12 8H12.25V6H12H11.75V8H12ZM12 6V6.25H20V6V5.75H12V6ZM20 6H19.75V8H20H20.25V6H20Z" fill="white"/>
</svg>
