<svg width="24" height="24" viewBox="0 0 24 24" fill="none" xmlns="http://www.w3.org/2000/svg">
<path d="M4.22218 19.6329H20.8885C21.5022 19.6329 21.9996 20.1263 21.9996 20.735C21.9996 21.3436 21.5022 21.837 20.8885 21.837H3.11109C2.49745 21.837 2 21.3436 2 20.735V3.10206C2 2.49341 2.49745 2 3.11109 2C3.72473 2 4.22218 2.49341 4.22218 3.10206V19.6329Z" fill="#B2B2B2"/>
<path d="M8.36638 14.8766C7.94669 15.3207 7.24355 15.3432 6.79588 14.9269C6.3482 14.5106 6.32552 13.8132 6.74521 13.3692L10.9118 8.96093C11.3177 8.5315 11.9922 8.49425 12.4436 8.87635L15.7321 11.6598L20.0168 6.27664C20.397 5.79892 21.0957 5.71739 21.5774 6.09454C22.059 6.47169 22.1412 7.16469 21.761 7.64241L16.761 13.9241C16.3705 14.4148 15.6472 14.4854 15.1677 14.0796L11.8077 11.2357L8.36638 14.8766Z" fill="#B2B2B2"/>
</svg>
