<svg width="24" height="26" viewBox="0 0 24 26" fill="none" xmlns="http://www.w3.org/2000/svg">
<path opacity="0.78" fill-rule="evenodd" clip-rule="evenodd" d="M11.0116 9.15079C11.0318 8.89043 11.249 8.68945 11.5101 8.68945H11.5477C11.8044 8.68945 12.0194 8.88387 12.0451 9.1393L12.476 13.4126L15.5559 15.1583C15.7125 15.2471 15.8093 15.4132 15.8093 15.5933C15.8093 15.9225 15.4966 16.162 15.1787 16.076L10.9712 14.9378C10.7392 14.875 10.5847 14.6561 10.6032 14.4165L11.0116 9.15079Z" fill="#B2B2B2"/>
<path opacity="0.901274" d="M6.11328 3.18635C6.20915 2.78882 6.72113 2.66975 6.98633 2.98323L8.08594 4.28303C9.28815 3.77527 10.6109 3.494 12 3.49397L12.5146 3.50666C17.7983 3.77224 21.9998 8.10529 22 13.4119C22 18.8899 17.5229 23.3309 12 23.3309C6.47725 23.3308 2 18.8898 2 13.4119C2.00003 12.4817 2.12966 11.5811 2.37109 10.7274L4.20508 11.2381C4.00694 11.9388 3.90531 12.6676 3.90527 13.4119C3.90527 17.8464 7.52922 21.4421 12 21.4422C16.4709 21.4422 20.0957 17.8465 20.0957 13.4119C20.0955 9.11623 16.6941 5.60853 12.417 5.39338L12 5.38264C11.0941 5.38266 10.2119 5.53032 9.37988 5.81233L10.4805 7.11409C10.7461 7.42818 10.5373 7.90732 10.125 7.93049L5.57617 8.18635C5.24034 8.20523 4.98055 7.8976 5.05859 7.57307L6.11328 3.18635Z" fill="#B2B2B2"/>
</svg>
