<svg width="24" height="24" viewBox="0 0 24 24" fill="none" xmlns="http://www.w3.org/2000/svg">
<rect opacity="0.01" width="24" height="24" fill="black"/>
<g clip-path="url(#clip0_1667_21519)">
<path d="M18.125 1H6.875C5.83945 1 5 1.83945 5 2.875V19.75C5 20.4402 5.55977 21 6.25 21L10.625 20.9997V17.8751C10.625 16.8396 11.4645 15.9997 12.5 15.9997C13.5355 15.9997 14.375 16.8396 14.375 17.8751V20.9997L18.75 21C19.4402 21 20 20.4402 20 19.75V2.875C20 1.83928 19.1602 1 18.125 1ZM10 12.8744C10 13.2196 9.72016 13.4994 9.375 13.4994H8.125C7.77984 13.4994 7.5 13.2196 7.5 12.8744V11.6244C7.5 11.2792 7.77984 10.9994 8.125 10.9994H9.375C9.72016 10.9994 10 11.2792 10 11.6244V12.8744ZM13.75 12.8744C13.75 13.2196 13.4702 13.4994 13.125 13.4994H11.875C11.5298 13.4994 11.25 13.2196 11.25 12.8744V11.6244C11.25 11.2792 11.5298 10.9994 11.875 10.9994H13.125C13.4702 10.9994 13.75 11.2792 13.75 11.6244V12.8744ZM14.6758 6.99943H13.5008V8.17443C13.5008 8.35389 13.3552 8.49943 13.1758 8.49943H11.8242C11.6448 8.49943 11.4992 8.35385 11.4992 8.17443V6.99943H10.3242C10.1445 6.99943 10 6.8549 10 6.67522V5.32365C10 5.1442 10.1456 4.99865 10.325 4.99865H11.5V3.82521C11.5 3.64576 11.6456 3.50021 11.825 3.50021H13.175C13.3545 3.50021 13.5 3.6458 13.5 3.82521V5.00021H14.675C14.8555 4.99943 15 5.14396 15 5.32365V6.67365C15 6.8549 14.8555 6.99943 14.6758 6.99943ZM17.5 12.8744C17.5 13.2196 17.2202 13.4994 16.875 13.4994H15.625C15.2798 13.4994 15 13.2196 15 12.8744V11.6244C15 11.2792 15.2798 10.9994 15.625 10.9994H16.875C17.2202 10.9994 17.5 11.2792 17.5 11.6244V12.8744Z" fill="#B2B2B2"/>
</g>
<defs>
<clipPath id="clip0_1667_21519">
<rect width="15" height="20" fill="white" transform="translate(5 1)"/>
</clipPath>
</defs>
</svg>
