<svg width="24" height="24" viewBox="0 0 24 24" fill="none" xmlns="http://www.w3.org/2000/svg">
<g opacity="0.3">
<rect opacity="0.01" width="24" height="24" fill="black"/>
<path d="M8.34765 6.3759C8.34765 4.51144 9.98179 3 11.9976 3C14.0135 3 15.6475 4.51144 15.6475 6.3759C15.6475 8.00923 14.3935 9.37164 12.7273 9.68433V11.5491H15.8887C17.0974 11.5491 18.0773 12.4554 18.0773 13.5734V14.3152C19.7447 14.627 21 15.99 21 17.6241C21 19.4885 19.3658 21 17.35 21C15.3342 21 13.7 19.4885 13.7 17.6241C13.7 15.9914 14.9531 14.6295 16.6182 14.316V13.5734C16.6182 13.2007 16.2916 12.8986 15.8887 12.8986H8.10684C7.70392 12.8986 7.37729 13.2007 7.37729 13.5734V14.3152C9.04464 14.627 10.3 15.99 10.3 17.6241C10.3 19.4885 8.66578 21 6.64996 21C4.63415 21 3 19.4885 3 17.6241C3 15.9914 4.25306 14.6295 5.91819 14.316V13.5734C5.91819 12.4554 6.89808 11.5491 8.10684 11.5491H11.2682V9.68438C9.6019 9.37181 8.34765 8.00932 8.34765 6.3759Z" fill="black"/>
</g>
</svg>
