<svg width="24" height="25" viewBox="0 0 24 25" fill="none" xmlns="http://www.w3.org/2000/svg">
<g opacity="0.3">
<rect opacity="0.01" y="0.552734" width="24" height="24" fill="black"/>
<path d="M12 13.5527C12.5523 13.5527 13 13.105 13 12.5527V2.55273C13 2.00045 12.5523 1.55273 12 1.55273C11.4477 1.55273 11 2.00045 11 2.55273V12.5527C11 13.105 11.4477 13.5527 12 13.5527Z" fill="black"/>
<path d="M16.59 3.66284C16.0985 3.40879 15.494 3.6013 15.24 4.09284C14.9859 4.58437 15.1785 5.18879 15.67 5.44284C18.9496 7.13603 20.6451 10.8531 19.7739 14.4397C18.9027 18.0263 15.6909 20.5514 12 20.5514C8.3091 20.5514 5.09727 18.0263 4.22605 14.4397C3.35484 10.8531 5.05039 7.13603 8.32999 5.44284C8.64796 5.2785 8.85409 4.957 8.87075 4.59947C8.88741 4.24193 8.71206 3.90266 8.41075 3.70947C8.10944 3.51627 7.72796 3.4985 7.40999 3.66284C3.31155 5.78025 1.19337 10.4264 2.2829 14.909C3.37243 19.3916 7.3869 22.5472 12 22.5472C16.6131 22.5472 20.6276 19.3916 21.7171 14.909C22.8066 10.4264 20.6884 5.78025 16.59 3.66284Z" fill="black"/>
</g>
</svg>
