<svg width="24" height="25" viewBox="0 0 24 25" fill="none" xmlns="http://www.w3.org/2000/svg">
<g opacity="0.300291">
<rect opacity="0.01" x="24" y="24.8047" width="24" height="24" transform="rotate(180 24 24.8047)" fill="black"/>
<path d="M12 14.3047C12.8284 14.3047 13.5 13.6331 13.5 12.8047C13.5 11.9763 12.8284 11.3047 12 11.3047C11.1716 11.3047 10.5 11.9763 10.5 12.8047C10.5 13.6331 11.1716 14.3047 12 14.3047Z" fill="black"/>
<path d="M13 2.80469C13.9082 2.83173 14.6301 3.57586 14.6299 4.48438V5.51465C14.6409 5.64561 14.7265 5.75864 14.8496 5.80469C14.9745 5.8847 15.1348 5.88463 15.2598 5.80469L16.0303 5.06445C16.3437 4.74893 16.7701 4.57133 17.2148 4.57129C17.6598 4.57129 18.0869 4.74873 18.4004 5.06445L19.7402 6.43457C20.0596 6.74819 20.2398 7.17738 20.2402 7.625C20.2416 8.06993 20.0609 8.4962 19.7402 8.80469L18.9297 9.54492C18.8569 9.65741 18.8568 9.80261 18.9297 9.91504C18.9897 10.0649 19.0905 10.1748 19.2305 10.1748H20.3203C21.2495 10.1805 21.9998 10.9351 22 11.8643V13.8047C21.9952 14.7057 21.2803 15.4424 20.3799 15.4746H19.29C19.1591 15.4857 19.046 15.5712 19 15.6943C18.9271 15.8068 18.9271 15.9519 19 16.0645L19.7305 16.7949C20.0459 17.1084 20.2236 17.5348 20.2236 17.9795C20.2236 18.4244 20.0462 18.8515 19.7305 19.165L18.3896 20.5049C18.0798 20.8236 17.6545 21.004 17.21 21.0049C16.7634 20.999 16.3362 20.8197 16.0195 20.5049L15.2598 19.7344C15.1473 19.6616 15.0021 19.6615 14.8896 19.7344C14.7397 19.7944 14.6299 19.8952 14.6299 20.0352V21.125C14.6242 22.0542 13.8696 22.8045 12.9404 22.8047H11.0498C10.145 22.8052 9.40243 22.0888 9.37012 21.1846V20.0947C9.35907 19.9638 9.27347 19.8507 9.15039 19.8047C9.0255 19.7247 8.86515 19.7247 8.74023 19.8047L7.96973 20.5449C7.65627 20.8604 7.22992 21.038 6.78516 21.0381C6.34022 21.0381 5.91313 20.8606 5.59961 20.5449L4.25977 19.1846C3.9396 18.8717 3.75919 18.4428 3.75977 17.9951C3.76563 17.5486 3.94501 17.1214 4.25977 16.8047L5.07031 16.0645C5.1431 15.952 5.14323 15.8068 5.07031 15.6943C5.0103 15.5444 4.90947 15.4346 4.76953 15.4346H3.67969C2.75052 15.4289 2.00022 14.6743 2 13.7451V11.8545C2.00011 10.9268 2.75206 10.175 3.67969 10.1748H4.70996C4.84093 10.1638 4.95395 10.0782 5 9.95508C5.08002 9.83019 5.07995 9.66984 5 9.54492L4.25977 8.80469C3.93478 8.49009 3.75098 8.05681 3.75098 7.60449C3.75103 7.15219 3.93475 6.71886 4.25977 6.4043L5.62988 5.06445C5.93968 4.74574 6.36512 4.56544 6.80957 4.56445C7.25605 4.57032 7.6833 4.7497 8 5.06445L8.74023 5.875C8.85273 5.94778 8.99792 5.94792 9.11035 5.875C9.26025 5.81499 9.37012 5.71416 9.37012 5.57422V4.48438C9.37578 3.55521 10.1304 2.8049 11.0596 2.80469H13ZM13.3398 9.57129C12.032 9.02956 10.5264 9.32909 9.52539 10.3301C8.5244 11.3311 8.22487 12.8367 8.7666 14.1445C9.30844 15.4521 10.5845 16.3047 12 16.3047C13.933 16.3047 15.5 14.7377 15.5 12.8047C15.5 11.3892 14.6475 10.1131 13.3398 9.57129Z" fill="black"/>
</g>
</svg>
