<svg width="24" height="24" viewBox="0 0 24 24" fill="none" xmlns="http://www.w3.org/2000/svg">
<path d="M21.6774 11.6771C21.6774 10.921 21.351 10.2419 20.8326 9.77001C20.961 9.46323 21.0323 9.1271 21.0323 8.77388C21.0323 7.45775 20.0471 6.37194 18.7742 6.21323L18.751 6.58259C18.639 5.74162 17.9935 5.06969 17.1619 4.92969L17.1571 4.98904C17.1577 4.96001 17.1613 4.93194 17.1613 4.90291C17.1613 3.47775 16.0058 2.32227 14.5806 2.32227C13.1555 2.32227 12 3.47775 12 4.90291V19.419C12 20.6661 13.011 21.6771 14.2581 21.6771C15.1642 21.6771 15.9435 21.1419 16.3032 20.3716C16.3739 20.3784 16.4439 20.3868 16.5161 20.3868C17.7632 20.3868 18.7742 19.3758 18.7742 18.1287V17.9926C19.2787 17.7719 19.6477 17.3013 19.7255 16.7368L19.7419 16.7448C20.6745 16.4671 21.3548 15.6032 21.3548 14.5803C21.3548 14.1458 21.23 13.7413 21.0171 13.3968C21.4265 12.94 21.6774 12.3387 21.6774 11.6771ZM15.871 14.9029L15.9045 14.919C15.8423 14.9974 15.8235 15.0032 15.871 14.9029Z" fill="#DEDEDE"/>
<path d="M12 16.8395C9.3319 16.8395 7.16125 14.6689 7.16125 12.0008C7.16125 9.33275 9.3319 7.16211 12 7.16211V7.80727C9.68771 7.80727 7.80642 9.68856 7.80642 12.0008C7.80642 14.3131 9.68771 16.1944 12 16.1944V16.8395Z" fill="#DEDEDE"/>
<path d="M10.9817 18.3639C9.28784 18.0949 7.74268 17.1368 6.74268 15.7362L7.26784 15.3613C8.16816 16.6223 9.55848 17.4846 11.0827 17.7268L10.9817 18.3639Z" fill="#DEDEDE"/>
<path d="M6.31834 15.0564C5.81447 14.1241 5.54834 13.0674 5.54834 12.0006C5.54834 8.81382 7.83318 6.13736 10.9816 5.63672L11.0829 6.27382C8.24995 6.72446 6.1935 9.13285 6.1935 12.0006C6.1935 12.9609 6.43286 13.9112 6.88576 14.7493L6.31834 15.0564Z" fill="#DEDEDE"/>
<path d="M22 11.6774C22 10.9335 21.7126 10.2223 21.2061 9.68548C21.3013 9.39871 21.3548 9.09258 21.3548 8.77419C21.3548 7.34065 20.3032 6.12419 18.8961 5.90742C18.63 5.31645 18.1165 4.85903 17.4719 4.67226C17.3539 3.17936 16.1035 2 14.5806 2C13.669 2 12.8552 2.42323 12.3226 3.08258V2H9.81258L9.29774 4.05871C8.95871 4.17419 8.62323 4.31387 8.29677 4.47516L6.47548 3.38226L3.38194 6.47548L4.47484 8.29677C4.31323 8.62419 4.17355 8.95968 4.05839 9.29806L2 9.8129V14.1871L4.05871 14.7019C4.19323 15.0965 4.36065 15.4871 4.5571 15.8648L5.12935 15.5674C4.92097 15.1671 4.74871 14.7523 4.6171 14.3352L4.5629 14.1629L2.64516 13.6835V10.3165L4.5629 9.8371L4.6171 9.66484C4.74903 9.24774 4.92129 8.8329 5.12935 8.43258L5.21258 8.27258L4.19419 6.57581L6.57516 4.19452L8.27226 5.2129L8.43258 5.12935C8.83129 4.92161 9.24581 4.74935 9.66452 4.61742L9.83677 4.5629L10.3165 2.64516H11.6774V21.3548H10.3165L9.8371 19.4371L9.66484 19.3826C9.24645 19.2506 8.83161 19.0784 8.4329 18.8706L8.27258 18.7871L6.57548 19.8055L4.01645 17.2461L3.56032 17.7023L6.47581 20.6174L8.2971 19.5245C8.62355 19.6858 8.95903 19.8255 9.29806 19.941L9.81258 22H12.3226V21.1206C12.7958 21.6584 13.4871 22 14.2581 22C15.2116 22 16.0439 21.479 16.4906 20.7077C16.499 20.7081 16.5077 20.7097 16.5161 20.7097C17.9181 20.7097 19.06 19.5855 19.0935 18.1916C19.541 17.9329 19.8745 17.5013 20.0039 16.9877C20.9955 16.6129 21.6774 15.6526 21.6774 14.5806C21.6774 14.1819 21.5842 13.7894 21.4058 13.4326C21.7906 12.9281 22 12.3132 22 11.6774ZM20.7429 13.5665C20.9319 13.8732 21.0323 14.2239 21.0323 14.5806C21.0323 15.2835 20.6403 15.9223 20.0458 16.2606C19.92 15.3142 19.1097 14.5806 18.129 14.5806V15.2258C18.8406 15.2258 19.4194 15.8045 19.4194 16.5161C19.4194 17.2277 18.8406 17.8065 18.129 17.8065C17.4174 17.8065 16.8387 17.2277 16.8387 16.5161H16.1935C16.1935 17.5835 17.0616 18.4516 18.129 18.4516C18.2303 18.4516 18.329 18.4413 18.4265 18.4265C18.2948 19.2739 17.6132 19.9403 16.7581 20.0477C16.8087 19.8461 16.8387 19.6365 16.8387 19.4194C16.8387 17.9965 15.681 16.8387 14.2581 16.8387V17.4839C15.3255 17.4839 16.1935 18.3519 16.1935 19.4194C16.1935 20.4868 15.3255 21.3548 14.2581 21.3548C13.1906 21.3548 12.3226 20.4868 12.3226 19.4194V4.90323C12.3226 3.65839 13.3355 2.64516 14.5806 2.64516C15.8258 2.64516 16.8387 3.65839 16.8387 4.90323C16.8387 6.14806 15.8258 7.16129 14.5806 7.16129V7.80645C16.03 7.80645 17.231 6.73806 17.4461 5.34806C18.0435 5.58968 18.4516 6.16871 18.4516 6.83871C18.4516 7.72806 17.7281 8.45161 16.8387 8.45161V9.09677C18.0839 9.09677 19.0968 8.08355 19.0968 6.83871C19.0968 6.76064 19.0919 6.68387 19.0842 6.60774C20.0313 6.88355 20.7097 7.75871 20.7097 8.77419C20.7097 10.019 19.6968 11.0323 18.4516 11.0323V11.6774C19.4826 11.6774 20.3874 11.1358 20.9026 10.3235C21.1932 10.711 21.3548 11.1852 21.3548 11.6774C21.3548 12.2316 21.1497 12.7658 20.7768 13.1819L20.6158 13.3616L20.7429 13.5665Z" fill="#B2B2B2"/>
<path d="M14.2581 19.0977H13.6129V19.7428H14.2581V19.0977Z" fill="#B2B2B2"/>
<path d="M15.871 11.6777H15.2258V12.3229H15.871V11.6777Z" fill="#B2B2B2"/>
<path d="M13.9354 4.58008H13.2903V5.22524H13.9354V4.58008Z" fill="#B2B2B2"/>
<path d="M19.4193 9.41992H18.7742V10.0651H19.4193V9.41992Z" fill="#B2B2B2"/>
<path d="M13.6129 13.9355H12.9678V14.5807H13.6129V13.9355Z" fill="#B2B2B2"/>
<path d="M19.742 13.291H19.0968V13.9362H19.742V13.291Z" fill="#B2B2B2"/>
</svg>
